<?xml version="1.0" encoding="UTF-8" standalone="no"?>
<!DOCTYPE svg PUBLIC "-//W3C//DTD SVG 1.1//EN" "http://www.w3.org/Graphics/SVG/1.1/DTD/svg11.dtd">
<svg width="100%" height="100%" viewBox="0 0 463 463" version="1.1" xmlns="http://www.w3.org/2000/svg" xmlns:xlink="http://www.w3.org/1999/xlink" xml:space="preserve" xmlns:serif="http://www.serif.com/" style="fill-rule:evenodd;clip-rule:evenodd;stroke-linejoin:round;stroke-miterlimit:2;">
    <g>
        <g>
            <path d="M404.803,90.197L316.803,2.197C315.397,0.79 313.489,0 311.5,0L79.5,0C66.542,0 56,10.542 56,23.5L56,439.5C56,452.458 66.542,463 79.5,463L383.5,463C396.458,463 407,452.458 407,439.5L407,95.5C407,93.511 406.21,91.603 404.803,90.197ZM319,25.606L381.394,88L327.5,88C322.813,88 319,84.187 319,79.5L319,25.606ZM383.5,448L79.5,448C74.813,448 71,444.187 71,439.5L71,23.5C71,18.813 74.813,15 79.5,15L304,15L304,79.5C304,92.458 314.542,103 327.5,103L392,103L392,439.5C392,444.187 388.187,448 383.5,448Z" style="fill-rule:nonzero;"/>
            <path d="M111.5,63L167.5,63C171.642,63 175,59.642 175,55.5C175,51.358 171.642,48 167.5,48L111.5,48C107.358,48 104,51.358 104,55.5C104,59.642 107.358,63 111.5,63Z" style="fill-rule:nonzero;"/>
            <path d="M111.5,103L199.5,103C203.642,103 207,99.642 207,95.5C207,91.358 203.642,88 199.5,88L111.5,88C107.358,88 104,91.358 104,95.5C104,99.642 107.358,103 111.5,103Z" style="fill-rule:nonzero;"/>
            <path d="M176,159.5C176,163.642 179.358,167 183.5,167L279.5,167C283.642,167 287,163.642 287,159.5C287,155.358 283.642,152 279.5,152L183.5,152C179.358,152 176,155.358 176,159.5Z" style="fill-rule:nonzero;"/>
            <path d="M351.5,192L111.5,192C107.358,192 104,195.358 104,199.5C104,203.642 107.358,207 111.5,207L351.5,207C355.642,207 359,203.642 359,199.5C359,195.358 355.642,192 351.5,192Z" style="fill-rule:nonzero;"/>
            <path d="M255.5,336L199.5,336C195.358,336 192,339.358 192,343.5C192,347.642 195.358,351 199.5,351L255.5,351C259.642,351 263,347.642 263,343.5C263,339.358 259.642,336 255.5,336Z" style="fill-rule:nonzero;"/>
            <path d="M255.5,376L199.5,376C195.358,376 192,379.358 192,383.5C192,387.642 195.358,391 199.5,391L255.5,391C259.642,391 263,387.642 263,383.5C263,379.358 259.642,376 255.5,376Z" style="fill-rule:nonzero;"/>
            <path d="M351.5,232L111.5,232C107.358,232 104,235.358 104,239.5C104,243.642 107.358,247 111.5,247L351.5,247C355.642,247 359,243.642 359,239.5C359,235.358 355.642,232 351.5,232Z" style="fill-rule:nonzero;"/>
            <path d="M351.5,272L111.5,272C107.358,272 104,275.358 104,279.5C104,283.642 107.358,287 111.5,287L351.5,287C355.642,287 359,283.642 359,279.5C359,275.358 355.642,272 351.5,272Z" style="fill-rule:nonzero;"/>
            <path d="M319.5,328C297.72,328 280,345.72 280,367.5C280,389.28 297.72,407 319.5,407C341.28,407 359,389.28 359,367.5C359,345.72 341.28,328 319.5,328ZM319.5,392C305.991,392 295,381.009 295,367.5C295,353.991 305.991,343 319.5,343C333.009,343 344,353.991 344,367.5C344,381.009 333.009,392 319.5,392Z" style="fill-rule:nonzero;"/>
            <path d="M319.5,354C312.056,354 306,360.056 306,367.5C306,374.944 312.056,381 319.5,381C326.944,381 333,374.944 333,367.5C333,360.056 326.944,354 319.5,354Z" style="fill-rule:nonzero;"/>
        </g>
    </g>
</svg>
