<?xml version="1.0" encoding="UTF-8" standalone="no"?>
<!DOCTYPE svg PUBLIC "-//W3C//DTD SVG 1.1//EN" "http://www.w3.org/Graphics/SVG/1.1/DTD/svg11.dtd">
<svg width="100%" height="100%" viewBox="0 0 378 378" version="1.1" xmlns="http://www.w3.org/2000/svg" xmlns:xlink="http://www.w3.org/1999/xlink" xml:space="preserve" xmlns:serif="http://www.serif.com/" style="fill-rule:evenodd;clip-rule:evenodd;stroke-linejoin:round;stroke-miterlimit:2;">
    <g transform="matrix(12.3996,0,0,12.3996,-9.54395,-9.54397)">
        <path d="M12,8L27,8C28.646,8 30,6.646 30,5C30,3.354 28.646,2 27,2L12,2C10.354,2 9,3.354 9,5C9,6.646 10.354,8 12,8ZM12,4L27,4C27.549,4 28,4.451 28,5C28,5.549 27.549,6 27,6L12,6C11.451,6 11,5.549 11,5C11,4.451 11.451,4 12,4ZM27,13L12,13C10.354,13 9,14.354 9,16C9,17.646 10.354,19 12,19L27,19C28.646,19 30,17.646 30,16C30,14.354 28.646,13 27,13ZM27,17L12,17C11.451,17 11,16.549 11,16C11,15.451 11.451,15 12,15L27,15C27.549,15 28,15.451 28,16C28,16.549 27.549,17 27,17ZM27,24L12,24C10.354,24 9,25.354 9,27C9,28.646 10.354,30 12,30L27,30C28.646,30 30,28.646 30,27C30,25.354 28.646,24 27,24ZM27,28L12,28C11.451,28 11,27.549 11,27C11,26.451 11.451,26 12,26L27,26C27.549,26 28,26.451 28,27C28,27.549 27.549,28 27,28ZM8,5C8,4.997 8,4.994 8,4.992C8,3.346 6.646,1.992 5,1.992C3.354,1.992 2,3.346 2,4.992C2,6.26 2.804,7.397 4,7.82L4,13.18C2.816,13.61 2.024,14.741 2.024,16C2.024,17.259 2.816,18.39 4,18.82L4,24.18C2.804,24.603 2,25.74 2,27.008C2,28.654 3.354,30.008 5,30.008C6.646,30.008 8,28.654 8,27.008C8,25.74 7.196,24.603 6,24.18L6,18.82C7.184,18.39 7.976,17.259 7.976,16C7.976,14.741 7.184,13.61 6,13.18L6,7.82C7.193,7.398 7.996,6.265 8,5ZM5,28C4.451,28 4,27.549 4,27C4,26.451 4.451,26 5,26C5.549,26 6,26.451 6,27C6,27.549 5.549,28 5,28ZM5,17C4.451,17 4,16.549 4,16C4,15.451 4.451,15 5,15C5.549,15 6,15.451 6,16C6,16.549 5.549,17 5,17ZM5,6C4.451,6 4,5.549 4,5C4,4.451 4.451,4 5,4C5.549,4 6,4.451 6,5C6,5.549 5.549,6 5,6Z" style="fill:url(#_Linear1);fill-rule:nonzero;"/>
    </g>
    <defs>
        <linearGradient id="_Linear1" x1="0" y1="0" x2="1" y2="0" gradientUnits="userSpaceOnUse" gradientTransform="matrix(28,0,0,28.0169,2,16)"><stop offset="0" style="stop-color:rgb(0,255,153);stop-opacity:1"/><stop offset="1" style="stop-color:rgb(51,204,255);stop-opacity:1"/></linearGradient>
    </defs>
</svg>
