<?xml version="1.0" encoding="UTF-8" standalone="no"?>
<!DOCTYPE svg PUBLIC "-//W3C//DTD SVG 1.1//EN" "http://www.w3.org/Graphics/SVG/1.1/DTD/svg11.dtd">
<svg width="100%" height="100%" viewBox="0 0 378 378" version="1.1" xmlns="http://www.w3.org/2000/svg" xmlns:xlink="http://www.w3.org/1999/xlink" xml:space="preserve" xmlns:serif="http://www.serif.com/" style="fill-rule:evenodd;clip-rule:evenodd;stroke-linejoin:round;stroke-miterlimit:2;">
    <g transform="matrix(1,0,0,1,-18,-62.3)">
        <g>
            <path d="M371,93.7L26.6,228C15.4,232.3 16.1,248.4 27.6,251.7L115.1,277.5L147.8,381.1C151.2,391.9 164.9,395.2 172.9,387.1L218.1,340.9L306.9,406.1C317.8,414.1 333.2,408.2 336,395L394.8,113.9C397.6,100.1 384.1,88.6 371,93.7ZM327.8,156.1L167.8,297.6C166.2,299 165.2,301 165,303.1L158.8,357.9C158.6,359.7 156.1,359.9 155.6,358.2L130.3,276.5C129.1,272.8 130.7,268.7 134,266.6L322.9,149.4C327.2,146.8 331.6,152.8 327.8,156.1Z" style="fill:url(#_Linear1);fill-rule:nonzero;"/>
        </g>
    </g>
    <defs>
        <linearGradient id="_Linear1" x1="0" y1="0" x2="1" y2="0" gradientUnits="userSpaceOnUse" gradientTransform="matrix(376.597,0,0,317.262,18.5756,251.098)"><stop offset="0" style="stop-color:rgb(0,255,153);stop-opacity:1"/><stop offset="1" style="stop-color:rgb(51,204,255);stop-opacity:1"/></linearGradient>
    </defs>
</svg>
